<?xml version="1.0" encoding="UTF-8" standalone="no"?>
<!-- Created with Inkscape (http://www.inkscape.org/) -->

<svg
   width="103.44204mm"
   height="160.49141mm"
   viewBox="0 0 103.44204 160.49141"
   version="1.1"
   id="svg1"
   xml:space="preserve"
   xmlns="http://www.w3.org/2000/svg"
   xmlns:svg="http://www.w3.org/2000/svg"><defs
     id="defs1" /><g
     id="layer4"
     transform="translate(-51.337825,-93.410553)"><path
       style="fill:#ffffff;fill-opacity:1;stroke-width:0.264583"
       d="m 147.95275,240.18856 -9.15552,5.28598 c -1.12374,1.82888 -0.74762,3.40774 -0.14521,4.98781 2.23846,3.79471 5.32562,4.54959 10.14719,1.76423 4.8228,-2.7833 5.7126,-5.83379 3.54552,-9.66969 -1.06719,-1.31176 -2.24626,-2.42706 -4.39198,-2.36833 z"
       id="path13" /><path
       style="fill:#ffffff;fill-opacity:0.49592;stroke:none;stroke-width:0.1;stroke-dasharray:none;stroke-opacity:1"
       d="m 134.34117,214.3984 -11.07374,6.39341 1.19528,2.18694 1.233,0.76171 12.45505,20.66283 9.19685,-5.30976 -11.66698,-21.11809 -0.0429,-1.44849 z"
       id="path12" /><path
       style="fill:#ffffff;fill-opacity:1;stroke-width:0.264583"
       d="m 66.605773,93.424388 c -2.173337,0.120777 -4.915944,1.05956 -7.889441,2.774508 -4.755319,2.747784 -7.49435,5.977624 -7.374744,8.575184 l 49.727712,83.35254 20.04529,28.72641 1.55236,2.84014 11.02362,-6.36447 -1.68362,-2.76417 L 117.15204,178.8414 69.830382,94.099799 c -0.821158,-0.525886 -1.920608,-0.747877 -3.224609,-0.675411 z m 8.92452,19.279442 c 0.123794,-10e-4 0.235943,0.0204 0.33693,0.0651 0.212063,0.0933 0.374781,0.23777 0.487825,0.43357 l 3.319178,5.74952 c 0.03083,0.0534 0.04189,0.10631 0.03256,0.15865 -0.0093,0.0523 -0.04884,0.10709 -0.118339,0.16484 -0.06284,0.0556 -0.157281,0.11081 -0.283704,0.16588 -0.116334,0.0588 -0.274478,0.12071 -0.474389,0.18552 -0.186585,0.0605 -0.352026,0.10378 -0.495577,0.12919 -0.133462,0.0292 -0.248623,0.042 -0.345716,0.0382 -0.09709,-0.004 -0.177367,-0.02 -0.241329,-0.0486 -0.0573,-0.0307 -0.101461,-0.0727 -0.132291,-0.12609 l -2.374016,-4.1119 -3.158463,1.02372 2.009179,3.47989 c 0.03083,0.0534 0.03822,0.10776 0.02222,0.16226 -0.0059,0.0583 -0.04052,0.11494 -0.103353,0.17053 -0.05617,0.0534 -0.147462,0.10771 -0.273885,0.16278 -0.116333,0.0589 -0.267651,0.11883 -0.454236,0.17932 -0.193247,0.0627 -0.358689,0.10542 -0.495576,0.12867 -0.133462,0.0292 -0.248623,0.042 -0.345716,0.0383 -0.09043,-0.006 -0.166136,-0.0274 -0.226859,-0.0641 -0.0573,-0.0307 -0.100945,-0.0727 -0.131775,-0.12609 l -2.00918,-3.4799 -3.648356,1.18288 2.394169,4.14755 c 0.03083,0.0534 0.03822,0.10725 0.02222,0.16175 -0.0059,0.0583 -0.04,0.11494 -0.102836,0.17053 -0.06284,0.0556 -0.157797,0.11132 -0.284221,0.1664 -0.116333,0.0589 -0.270806,0.11924 -0.464054,0.1819 -0.193248,0.0627 -0.361844,0.10688 -0.505395,0.13229 -0.133462,0.0292 -0.248623,0.042 -0.345716,0.0382 -0.09709,-0.004 -0.179109,-0.0229 -0.246496,-0.0574 -0.0573,-0.0307 -0.101462,-0.0727 -0.132292,-0.12609 l -3.339848,-5.78518 c -0.113045,-0.1958 -0.146007,-0.38266 -0.09819,-0.56017 0.05791,-0.17374 0.233379,-0.30801 0.526583,-0.40308 l 11.275281,-3.65559 c 0.146601,-0.0475 0.281865,-0.072 0.40566,-0.0734 z m 4.991426,8.03982 c 0.02744,0.003 0.05454,0.01 0.08061,0.0207 0.114408,0.0474 0.231362,0.16094 0.350883,0.34055 0.126185,0.17745 0.286882,0.4354 0.482141,0.7736 0.161004,0.27886 0.281021,0.50055 0.360185,0.66507 0.08259,0.17045 0.134572,0.30819 0.156063,0.41393 0.02815,0.10357 0.02604,0.18224 -0.0067,0.23513 -0.02933,0.0588 -0.07391,0.11882 -0.133325,0.18035 l -3.111955,3.40703 5.41414,0.58032 c 0.100518,0.01 0.187619,0.0235 0.261483,0.0419 0.07729,0.0243 0.15328,0.0734 0.227893,0.14779 0.0847,0.0782 0.176468,0.18931 0.275435,0.33332 0.102393,0.14994 0.230838,0.35828 0.38499,0.62528 0.171279,0.29667 0.296336,0.53459 0.375687,0.71314 0.08602,0.17638 0.111067,0.30887 0.07545,0.39791 -0.03562,0.089 -0.133547,0.13854 -0.294039,0.14831 -0.157066,0.0157 -0.384517,0.0122 -0.682646,-0.0109 l -6.757727,-0.85214 -4.100008,4.57285 c -0.171569,0.18241 -0.318507,0.31098 -0.441317,0.38602 -0.119384,0.081 -0.236475,0.0981 -0.350883,0.0506 -0.114408,-0.0474 -0.236258,-0.16284 -0.365869,-0.34623 -0.126185,-0.17745 -0.28514,-0.43254 -0.476973,-0.76481 -0.161003,-0.27887 -0.281021,-0.50056 -0.360185,-0.66508 -0.07916,-0.16452 -0.133076,-0.29846 -0.16123,-0.40204 -0.01807,-0.0998 -0.01228,-0.17889 0.01705,-0.23771 0.02933,-0.0588 0.07514,-0.11597 0.137976,-0.17157 l 3.419429,-3.67626 -5.911267,-0.64027 c -0.100518,-0.01 -0.189361,-0.0269 -0.26665,-0.0512 -0.07729,-0.0242 -0.160436,-0.0781 -0.248564,-0.16226 -0.07804,-0.0804 -0.171359,-0.20148 -0.280603,-0.36329 -0.105818,-0.15588 -0.236005,-0.36758 -0.390157,-0.63458 -0.178131,-0.30854 -0.306672,-0.55216 -0.386023,-0.73071 -0.07592,-0.17261 -0.09434,-0.30034 -0.05529,-0.38344 0.03904,-0.0831 0.138715,-0.12924 0.299207,-0.13901 0.160492,-0.01 0.390014,0.004 0.68833,0.0408 l 7.240385,0.92811 3.827673,-4.28398 c 0.178233,-0.18458 0.325358,-0.32082 0.441317,-0.40773 0.09454,-0.0623 0.182787,-0.0885 0.2651,-0.0796 z m 5.937622,10.89029 c 0.123795,-0.001 0.23646,0.0204 0.337447,0.0651 0.212063,0.0933 0.374781,0.23777 0.487826,0.43357 l 3.319177,5.74952 c 0.03083,0.0534 0.04138,0.10631 0.03204,0.15865 -0.0093,0.0523 -0.04832,0.10709 -0.117822,0.16484 -0.06284,0.0556 -0.157797,0.11133 -0.28422,0.1664 -0.116334,0.0589 -0.274478,0.12071 -0.47439,0.18552 -0.186584,0.0605 -0.351509,0.10327 -0.49506,0.12868 -0.133462,0.0292 -0.248623,0.042 -0.345715,0.0382 -0.09709,-0.004 -0.177885,-0.02 -0.241846,-0.0486 -0.0573,-0.0307 -0.101461,-0.0727 -0.132292,-0.12609 l -2.373498,-4.11189 -3.158981,1.02422 2.00918,3.47989 c 0.03083,0.0534 0.03822,0.10725 0.02222,0.16175 -0.0059,0.0583 -0.04,0.11494 -0.102836,0.17053 -0.05617,0.0534 -0.147462,0.10771 -0.273885,0.16278 -0.116334,0.0588 -0.268169,0.11883 -0.454753,0.17932 -0.193248,0.0627 -0.358173,0.10543 -0.49506,0.12868 -0.133462,0.0292 -0.248623,0.042 -0.345715,0.0382 -0.09043,-0.006 -0.166137,-0.0274 -0.22686,-0.0641 -0.0573,-0.0307 -0.101461,-0.0727 -0.132292,-0.12609 l -2.009179,-3.47989 -3.648356,1.18287 2.394685,4.14755 c 0.03083,0.0534 0.03822,0.10725 0.02222,0.16175 -0.0059,0.0583 -0.04052,0.11545 -0.103353,0.17105 -0.06284,0.0556 -0.15728,0.1108 -0.283703,0.16588 -0.116334,0.0588 -0.270807,0.11976 -0.464055,0.18241 -0.193247,0.0627 -0.361844,0.10637 -0.505395,0.13178 -0.133462,0.0292 -0.248623,0.042 -0.345715,0.0382 -0.09709,-0.004 -0.179627,-0.0229 -0.247014,-0.0574 -0.0573,-0.0307 -0.101461,-0.0727 -0.132291,-0.12609 l -3.339848,-5.78518 c -0.113045,-0.1958 -0.14549,-0.38214 -0.09767,-0.55965 0.05791,-0.17375 0.23338,-0.30853 0.526583,-0.4036 l 11.275281,-3.65559 c 0.146602,-0.0475 0.281349,-0.072 0.405143,-0.0734 z"
       id="path3-6-8" /><path
       style="fill:#ffffff;fill-opacity:1;stroke-width:0.264583"
       d="m 58.164944,240.18856 c -2.145727,-0.0588 -3.3248,1.05659 -4.39198,2.36833 -2.167089,3.83591 -1.277449,6.88677 3.54552,9.66969 4.821792,2.78502 7.908734,2.03048 10.147185,-1.76423 0.602415,-1.58009 0.978519,-3.15892 -0.145211,-4.98781 z"
       id="path24" /><path
       style="fill:#ffffff;fill-opacity:0.5;stroke-width:0.264583"
       d="m 71.776516,214.3984 -1.296561,2.12855 -0.04341,1.44849 -11.666472,21.11758 9.196338,5.30975 12.455571,-20.66231 1.232483,-0.76171 1.195792,-2.18694 z"
       id="path23" /><path
       style="fill:#ffffff;fill-opacity:1;stroke-width:0.264583"
       d="m 91.799584,173.76729 -2.833419,5.07411 -14.854907,31.72313 -1.684135,2.76417 11.023616,6.36447 1.55236,-2.84014 17.652671,-25.29716 -1.68,-2.40761 z"
       id="path22" /><path
       style="fill:#ffffff;fill-opacity:1;stroke-width:0.264583"
       d="m 139.51192,93.423872 c -1.30403,-0.07241 -2.40294,0.150041 -3.2241,0.675927 l -32.8104,58.755071 10.9337,19.57865 40.36498,-67.65944 c 0.1196,-2.59755 -2.61966,-5.82696 -7.37474,-8.575184 -2.97333,-1.715211 -5.71606,-2.654341 -7.88944,-2.775024 z m -6.22546,16.744718 c 0.28393,-0.006 0.57287,0.0447 0.86609,0.15347 0.38576,0.14029 0.77864,0.39123 1.17926,0.75241 0.33819,0.3049 0.61857,0.63441 0.84129,0.98857 0.22094,0.34354 0.38616,0.70867 0.49506,1.09554 0.1089,0.38688 0.16353,0.79271 0.16382,1.21698 2.8e-4,0.42428 -0.053,0.85868 -0.15968,1.3038 0.17218,-0.10639 0.3529,-0.18681 0.5426,-0.24133 0.19312,-0.0605 0.40317,-0.0877 0.62942,-0.0822 0.22447,-0.005 0.4671,0.0195 0.72812,0.0744 0.25581,0.0502 0.53584,0.12692 0.84026,0.22996 l 2.55023,0.82424 c 0.24909,0.0892 0.42924,0.16124 0.54002,0.21601 0.10558,0.0501 0.18413,0.0983 0.23616,0.14521 0.0572,0.0516 0.0997,0.10824 0.12764,0.1695 0.0227,0.0566 0.0212,0.14076 -0.004,0.25321 -0.0254,0.11245 -0.0821,0.25936 -0.17105,0.4408 -0.0889,0.18145 -0.2194,0.42061 -0.39068,0.71727 -0.14387,0.2492 -0.26362,0.44344 -0.35966,0.58239 -0.096,0.13895 -0.18254,0.2409 -0.25994,0.30644 -0.0792,0.0549 -0.15021,0.0815 -0.21239,0.0796 -0.0674,-0.007 -0.13883,-0.0258 -0.21497,-0.0584 l -2.85151,-1.00149 c -0.32687,-0.10524 -0.62364,-0.18743 -0.88986,-0.24701 -0.26622,-0.0596 -0.50725,-0.074 -0.72296,-0.0429 -0.21749,0.0204 -0.41495,0.0954 -0.59221,0.22427 -0.17725,0.12889 -0.33775,0.3177 -0.48162,0.56689 l -0.42117,0.72968 3.84731,3.46903 c 0.052,0.0469 0.0873,0.10957 0.10491,0.18862 0.0211,0.0731 0.0186,0.16609 -0.007,0.27854 -0.0254,0.11245 -0.0731,0.24997 -0.14314,0.41238 -0.07,0.1624 -0.17182,0.35926 -0.30541,0.59066 -0.13017,0.22546 -0.24776,0.40809 -0.35244,0.54829 -0.10124,0.13425 -0.19028,0.23417 -0.26768,0.29972 -0.0774,0.0655 -0.14711,0.0975 -0.20929,0.0956 -0.0622,-0.002 -0.11954,-0.0265 -0.17157,-0.0734 l -9.16998,-8.2672 c -0.22892,-0.20638 -0.35529,-0.41958 -0.37879,-0.63923 -0.0253,-0.23028 0.0187,-0.44293 0.13178,-0.63872 l 1.72134,-2.98173 c 0.1747,-0.3026 0.32407,-0.54688 0.44752,-0.73329 0.12345,-0.18642 0.23917,-0.35255 0.34726,-0.49868 0.32443,-0.4112 0.6631,-0.73754 1.01596,-0.97875 0.35629,-0.24715 0.72242,-0.39516 1.09864,-0.4439 0.0936,-0.0148 0.18751,-0.0233 0.28216,-0.0253 z m -0.13333,3.0148 c -0.32827,-0.0343 -0.65229,0.10211 -0.97203,0.40928 -0.0945,0.0952 -0.19402,0.21275 -0.29869,0.35295 -0.10125,0.13426 -0.22877,0.33503 -0.38292,0.60203 l -0.60669,1.05006 2.86443,2.58227 0.68833,-1.19269 c 0.19183,-0.33226 0.32581,-0.65307 0.40204,-0.96325 0.071,-0.31486 0.092,-0.61168 0.0631,-0.89038 -0.0342,-0.2834 -0.11549,-0.54655 -0.24443,-0.7891 -0.12894,-0.24255 -0.3029,-0.46239 -0.52142,-0.65939 -0.33298,-0.3002 -0.6634,-0.46746 -0.99167,-0.50178 z m -6.01462,6.5536 c 0.1208,-0.0174 0.25914,0.017 0.41496,0.10336 0.15063,0.0817 0.35584,0.23985 0.61599,0.47439 0.15088,0.13603 0.27618,0.26248 0.37517,0.37878 0.10241,0.11038 0.17841,0.21063 0.22892,0.30128 0.0487,0.08 0.0745,0.15257 0.0765,0.21756 0.005,0.059 -0.007,0.11506 -0.0383,0.16846 -0.0445,0.0771 -0.16305,0.1599 -0.35605,0.24753 -0.19299,0.0876 -0.42652,0.22454 -0.70021,0.41083 -0.27369,0.18629 -0.57187,0.43569 -0.89504,0.74879 -0.31974,0.30716 -0.63027,0.72173 -0.93172,1.24385 -0.32201,0.55773 -0.52734,1.13991 -0.61599,1.74563 -0.0939,0.60103 -0.0776,1.20219 0.0496,1.80403 0.12199,0.59714 0.35218,1.17903 0.68988,1.74511 0.3325,0.56139 0.76126,1.0786 1.28675,1.55236 0.57751,0.52066 1.13686,0.89422 1.67845,1.12086 0.5398,0.21602 1.04892,0.30083 1.52704,0.25373 0.47811,-0.0471 0.91957,-0.22251 1.32395,-0.52555 0.4078,-0.30896 0.76553,-0.73001 1.07383,-1.264 0.15073,-0.26107 0.2737,-0.54288 0.36897,-0.84491 0.0953,-0.30204 0.15456,-0.6096 0.17725,-0.92294 l -2.34146,-2.11099 -1.25884,2.18075 c -0.0617,0.1068 -0.16702,0.13791 -0.31574,0.0941 -0.15392,-0.0486 -0.3712,-0.19939 -0.65215,-0.45268 -0.14568,-0.13134 -0.26457,-0.24731 -0.35657,-0.3483 -0.0886,-0.10693 -0.15265,-0.20089 -0.19276,-0.28216 -0.0453,-0.0859 -0.0693,-0.16187 -0.0713,-0.22686 -0.007,-0.0697 0.005,-0.13108 0.0357,-0.18448 l 2.24534,-3.88917 c 0.0548,-0.0949 0.11836,-0.16365 0.19069,-0.2067 0.0705,-0.0537 0.14965,-0.0819 0.23771,-0.0837 0.0915,-0.008 0.18746,0.0115 0.28783,0.0568 0.0952,0.0407 0.19515,0.10773 0.29921,0.20154 l 4.01888,3.62355 c 0.15608,0.14072 0.2751,0.29762 0.35708,0.47078 0.0802,0.16252 0.0976,0.37212 0.0522,0.6289 -0.042,0.25084 -0.1084,0.5518 -0.19998,0.90227 -0.0916,0.35046 -0.2005,0.70341 -0.3266,1.05885 -0.12267,0.3495 -0.262,0.69303 -0.41754,1.03094 -0.15212,0.33199 -0.31868,0.65551 -0.50023,0.96997 -0.53096,0.91965 -1.12172,1.64081 -1.77199,2.16421 -0.65204,0.51278 -1.34246,0.82451 -2.07067,0.93482 -0.73342,0.10563 -1.49162,0.008 -2.27531,-0.29248 -0.7889,-0.30527 -1.58415,-0.81915 -2.38539,-1.54151 -0.82725,-0.74582 -1.48652,-1.55659 -1.97766,-2.43241 -0.49633,-0.88051 -0.82286,-1.78845 -0.97926,-2.72335 -0.16161,-0.93959 -0.15182,-1.88705 0.0284,-2.84324 0.18366,-0.96211 0.53732,-1.89721 1.06143,-2.80499 0.28775,-0.4984 0.58125,-0.92434 0.88005,-1.27744 0.2936,-0.3578 0.57194,-0.6479 0.83509,-0.87075 0.26138,-0.23348 0.49936,-0.40674 0.71469,-0.51935 0.21532,-0.11261 0.38182,-0.17457 0.49919,-0.18604 z m -5.97534,11.96465 c 0.29504,0.0156 0.59549,0.0872 0.90175,0.21446 0.40314,0.16498 0.81009,0.43249 1.22111,0.80305 0.56712,0.51128 1.01113,1.06513 1.33171,1.66088 0.32057,0.59574 0.52034,1.22227 0.59944,1.87999 0.0739,0.65303 0.0262,1.33167 -0.14314,2.03605 -0.16592,0.69844 -0.46793,1.42749 -0.90641,2.18694 l -0.555,0.96119 3.22306,2.90576 c 0.052,0.0469 0.0867,0.11008 0.10438,0.18914 0.0211,0.0731 0.0192,0.16608 -0.006,0.27853 -0.0254,0.11246 -0.0731,0.24946 -0.14314,0.41186 -0.07,0.16241 -0.17181,0.35979 -0.30541,0.59118 -0.13017,0.22547 -0.24776,0.4081 -0.35243,0.54829 -0.10125,0.13426 -0.19029,0.23418 -0.26769,0.29972 -0.0774,0.0656 -0.14763,0.0975 -0.2098,0.0956 -0.0622,-0.002 -0.11902,-0.0265 -0.17105,-0.0734 l -9.0842,-8.19019 c -0.24453,-0.22046 -0.38578,-0.45562 -0.42323,-0.7059 -0.0392,-0.26091 0.01,-0.50991 0.14676,-0.74724 l 1.56735,-2.71457 c 0.15757,-0.27293 0.31726,-0.5217 0.47852,-0.74621 0.15948,-0.23512 0.36934,-0.4966 0.63045,-0.78444 0.25592,-0.29254 0.56575,-0.54104 0.92915,-0.74569 0.36682,-0.21059 0.74688,-0.32788 1.14049,-0.35192 0.0971,-0.007 0.19518,-0.008 0.29353,-0.003 z m -0.36484,2.99258 c -0.21798,-0.0155 -0.41311,0.0179 -0.58498,0.0997 -0.22915,0.10916 -0.4233,0.26748 -0.58291,0.47542 -0.16139,0.19732 -0.31223,0.41768 -0.45268,0.66094 l -0.57568,0.99684 3.42615,3.0887 0.60616,-1.05007 c 0.21581,-0.37379 0.35179,-0.72526 0.40721,-1.05419 0.0589,-0.33488 0.0564,-0.65252 -0.007,-0.95343 -0.0688,-0.30561 -0.18859,-0.59843 -0.35915,-0.8785 -0.17577,-0.28477 -0.39357,-0.54475 -0.65371,-0.77928 -0.35379,-0.31897 -0.68621,-0.51014 -0.99735,-0.57413 -0.0778,-0.016 -0.15317,-0.0269 -0.22583,-0.032 z"
       id="path3-6" /></g></svg>
